<?xml version="1.0" encoding="iso-8859-1"?>
<!-- Uploaded to: SVG Repo, www.svgrepo.com, Generator: SVG Repo Mixer Tools -->
<svg fill="#011B40" height="800px" width="800px" version="1.1" id="Layer_1" xmlns="http://www.w3.org/2000/svg" xmlns:xlink="http://www.w3.org/1999/xlink" 
	 viewBox="0 0 512 512" xml:space="preserve">
<g>
	<g>
		<path d="M501.801,179.563h-33.023c3.145-11.057,1.345-23.229-5.394-33.004l13.011-13.011c1.912-1.913,2.987-4.507,2.987-7.212
			c0-2.214-0.73-4.348-2.041-6.1l22.875-22.875c1.912-1.912,2.987-4.507,2.987-7.212s-1.075-5.298-2.987-7.212l-18.371-18.371
			c-1.912-1.912-4.507-2.987-7.212-2.987s-5.3,1.075-7.212,2.987l-22.875,22.875c-3.995-2.993-9.681-2.685-13.313,0.946
			l-91.176,91.176H10.199C4.566,179.564,0,184.131,0,189.763v250.458c0,5.632,4.566,10.199,10.199,10.199h491.602
			c5.633,0,10.199-4.567,10.199-10.199V189.762C512,184.129,507.434,179.563,501.801,179.563z M474.633,86.203l3.947,3.946
			l-15.581,15.58l-3.946-3.946L474.633,86.203z M438.445,110.023l16.313,16.313L280.372,300.721l-16.313-16.313L438.445,110.023z
			 M446.481,179.563H430.38l18.053-18.053C450.886,167.374,450.231,174.228,446.481,179.563z M265.948,315.145l-39.423,39.422
			c-1.874,1.875-4.365,2.908-7.016,2.908c-2.651,0-5.142-1.033-7.017-2.909l-2.28-2.279c-3.869-3.869-3.869-10.164,0-14.032
			l39.423-39.423L265.948,315.145z M491.602,430.021H20.398V199.962H319.66L195.789,323.833c-9.713,9.714-11.437,24.428-5.19,35.927
			l-8.165,8.165H64.534c-5.633,0-10.199,4.567-10.199,10.199s4.566,10.199,10.199,10.199h122.124c3.018,0,5.721-1.318,7.588-3.4
			l10.766-10.729c4.397,2.401,9.348,3.68,14.497,3.68c8.099,0,15.713-3.155,21.44-8.881l169.031-169.031h16.524l-34.789,34.789
			c-3.983,3.983-3.983,10.441,0,14.425c1.992,1.991,4.602,2.987,7.212,2.987c2.61,0,5.221-0.996,7.212-2.987l49.214-49.214h36.248
			V430.021z"/>
	</g>
</g>
<g>
	<g>
		<path d="M408.138,367.924h-74.516c-5.633,0-10.199,4.567-10.199,10.199s4.566,10.199,10.199,10.199h74.516
			c5.633,0,10.199-4.567,10.199-10.199S413.77,367.924,408.138,367.924z"/>
	</g>
</g>
<g>
	<g>
		<path d="M451.605,367.924h-6.209c-5.633,0-10.199,4.567-10.199,10.199s4.566,10.199,10.199,10.199h6.209
			c5.633,0,10.199-4.567,10.199-10.199S457.238,367.924,451.605,367.924z"/>
	</g>
</g>
<g>
	<g>
		<path d="M186.659,231.311H64.534c-5.633,0-10.199,4.567-10.199,10.199c0,5.632,4.566,10.199,10.199,10.199h122.124
			c5.633,0,10.199-4.567,10.199-10.199C196.858,235.878,192.292,231.311,186.659,231.311z"/>
	</g>
</g>
<g>
	<g>
		<path d="M186.659,275.814H64.534c-5.633,0-10.199,4.567-10.199,10.199s4.566,10.199,10.199,10.199h122.124
			c5.633,0,10.199-4.567,10.199-10.199S192.292,275.814,186.659,275.814z"/>
	</g>
</g>
</svg>